<svg width="80" height="80" viewBox="0 0 80 80" fill="none" xmlns="http://www.w3.org/2000/svg">
<path d="M24 0.799805H56C68.813 0.799805 79.2002 11.187 79.2002 24V56C79.2002 68.813 68.813 79.2002 56 79.2002H24C11.187 79.2002 0.799805 68.813 0.799805 56V24C0.799805 11.187 11.187 0.799805 24 0.799805Z" stroke="#F1F1F1" stroke-width="1.6"/>
<path d="M55.7935 28.0106C55.2375 27.2999 54.2655 27.8693 53.8375 28.1173C50.7922 29.9119 50.3429 33.0719 49.2815 34.8866C48.4469 36.3399 47.0789 37.4066 45.8415 37.4893C44.9269 37.5546 43.9349 37.3773 42.9509 36.9493C40.5415 35.9079 39.2442 34.5599 38.9282 34.3226C38.2789 33.8293 33.2882 28.9693 29.2215 28.7706C29.2215 28.7706 28.7255 27.7706 28.6015 27.7533C28.3055 27.7199 28.0015 28.3546 27.7802 28.4213C27.5802 28.4919 27.2295 27.7386 27.0269 27.7719C26.8229 27.7986 26.6242 28.5533 26.2269 28.9413C25.9335 29.2253 25.5789 29.2079 25.3775 29.5586C25.3082 29.6866 25.3322 29.9119 25.2535 30.1186C25.0842 30.5453 24.5189 30.5906 24.5135 31.0479C24.5135 31.5559 24.9895 31.6533 25.4055 32.0079C25.7362 32.2906 25.7589 32.4906 26.1442 32.6226C26.4882 32.7399 26.9869 32.3733 27.4295 32.5053C27.7989 32.6133 28.1535 32.6919 28.2322 33.0693C28.3042 33.4106 28.2322 33.9466 27.7789 33.8866C27.6295 33.8666 26.9815 33.6546 26.1815 33.7399C25.2149 33.8426 24.1109 34.1519 24.0029 35.2199C23.9482 35.8159 24.6882 36.5133 25.4095 36.3746C25.9042 36.2799 25.6709 35.6999 25.9415 35.4199C26.2975 35.0599 28.3042 36.6786 30.1709 36.6786C30.9615 36.6786 31.5455 36.4786 32.1269 35.8719C32.1802 35.8333 32.2509 35.7359 32.3335 35.7253C32.4265 35.7485 32.5146 35.7882 32.5935 35.8426C34.1015 37.0386 35.2389 39.4426 40.7669 39.4706C41.5429 39.4799 42.4335 39.8426 43.1615 40.5066C43.8015 41.0839 44.1802 42.0066 44.5442 42.9399C45.1015 44.3439 46.0922 45.6986 47.6002 47.2106C47.6802 47.3013 48.9202 48.2506 49.0135 48.3213C49.0295 48.3346 49.1255 48.5439 49.0842 48.6613C49.0575 49.5813 48.9202 52.2213 50.9042 52.3319C51.3922 52.3586 51.2709 52.0239 51.2709 51.7853C51.2642 51.3306 51.1842 50.8719 51.4215 50.3986C51.7589 49.7613 50.7202 49.4533 50.7429 48.0573C50.7682 47.0119 49.8829 47.1893 49.4309 46.3906C49.1775 45.9333 48.9402 45.6813 48.9642 45.1293C49.0615 41.9559 48.2749 39.8653 47.8909 39.3599C47.5882 38.9679 47.3269 38.8226 47.6149 38.6399C49.2682 37.5533 49.6482 36.5413 49.6482 36.5413C50.5282 34.4866 51.3229 32.6146 52.4149 31.7813C52.6362 31.6213 53.2002 31.1946 53.5509 31.0346C54.5682 30.5519 55.1149 30.2639 55.4015 29.9839C55.8762 29.5346 56.2482 28.5799 55.7935 28.0106Z" fill="black"/>
</svg>
