<svg width="50" height="50" viewBox="0 0 50 50" fill="none" xmlns="http://www.w3.org/2000/svg">
<g clip-path="url(#clip0_174_216)">
<path d="M49.6774 6.26656C48.8086 5.15614 47.2899 6.04572 46.6211 6.43322C41.8628 9.23739 41.1607 14.1749 39.5024 17.0103C38.1982 19.2811 36.0607 20.9478 34.1274 21.077C32.6982 21.1791 31.1482 20.902 29.6107 20.2332C25.8461 18.6061 23.819 16.4999 23.3253 16.1291C22.3107 15.3582 14.5128 7.76447 8.15863 7.45406C8.15863 7.45406 7.38363 5.89156 7.18988 5.86447C6.72738 5.81239 6.25238 6.80406 5.90654 6.90822C5.59404 7.01864 5.04613 5.84156 4.72946 5.89364C4.41071 5.93531 4.10029 7.11447 3.47946 7.72072C3.02113 8.16447 2.46696 8.13739 2.15238 8.68531C2.04404 8.88531 2.08154 9.23739 1.95863 9.56031C1.69404 10.227 0.81071 10.2978 0.802377 11.0124C0.802377 11.8061 1.54613 11.9582 2.19613 12.5124C2.71279 12.9541 2.74821 13.2666 3.35029 13.4728C3.88779 13.6561 4.66696 13.0832 5.35863 13.2895C5.93571 13.4582 6.48988 13.5811 6.61279 14.1707C6.72529 14.7041 6.61279 15.5416 5.90446 15.4478C5.67113 15.4166 4.65863 15.0853 3.40863 15.2186C1.89821 15.3791 0.17321 15.8624 0.00446011 17.5311C-0.0809565 18.4624 1.07529 19.552 2.20238 19.3353C2.97529 19.1874 2.61071 18.2811 3.03363 17.8436C3.58988 17.2811 6.72529 19.8103 9.64196 19.8103C10.8774 19.8103 11.7899 19.4978 12.6982 18.5499C12.7815 18.4895 12.892 18.3374 13.0211 18.3207C13.1664 18.357 13.304 18.4191 13.4274 18.5041C15.7836 20.3728 17.5607 24.1291 26.1982 24.1728C27.4107 24.1874 28.8024 24.7541 29.9399 25.7916C30.9399 26.6936 31.5315 28.1353 32.1003 29.5936C32.9711 31.7874 34.519 33.9041 36.8753 36.2666C37.0003 36.4082 38.9378 37.8916 39.0836 38.002C39.1086 38.0228 39.2586 38.3499 39.194 38.5332C39.1524 39.9707 38.9378 44.0957 42.0378 44.2686C42.8003 44.3103 42.6107 43.7874 42.6107 43.4145C42.6003 42.7041 42.4753 41.9874 42.8461 41.2478C43.3732 40.252 41.7503 39.7707 41.7857 37.5895C41.8253 35.9561 40.442 36.2332 39.7357 34.9853C39.3399 34.2707 38.969 33.877 39.0065 33.0145C39.1586 28.0561 37.9295 24.7895 37.3295 23.9999C36.8565 23.3874 36.4482 23.1603 36.8982 22.8749C39.4815 21.177 40.0753 19.5957 40.0753 19.5957C41.4503 16.3853 42.692 13.4603 44.3982 12.1582C44.744 11.9082 45.6253 11.2416 46.1732 10.9916C47.7628 10.2374 48.617 9.78739 49.0649 9.34989C49.8065 8.64781 50.3878 7.15614 49.6774 6.26656Z" fill="black"/>
</g>
<defs>
<clipPath id="clip0_174_216">
<rect width="50" height="50" fill="white"/>
</clipPath>
</defs>
</svg>
