<svg width="50" height="50" viewBox="0 0 50 50" fill="none" xmlns="http://www.w3.org/2000/svg">
<g clip-path="url(#clip0_174_221)">
<path d="M25.3521 21.4708L27.6667 17.4354L35.5292 16.9312L35.8042 16.4396L28.5375 15.9354L30.2458 12.9896H43.725C47.8708 12.9896 50.9333 14.4791 49.7396 18.8229C49.3854 20.1521 47.7 23.475 42.7479 24.8625C43.8042 24.9875 46.4146 26.1458 45.9562 29.1479C45.1562 34.4771 38.2687 37.0104 34.4292 37.0104L18.5104 37.0229L17.7188 33.9396L26.0625 33.3562L26.3479 32.8625L17.2937 32.3125L16.3208 28.6562L29.1917 27.9L29.4771 27.4187L6.36042 25.975L7.47292 24.0479L32.3646 22.4333L32.6521 21.9521L25.3521 21.4708ZM35.7687 22.2729L38.0604 22.2604C39.5979 22.25 41.1896 21.5521 41.775 20.1396C42.3146 18.8229 41.5917 17.7 40.6292 17.7104H38.4062L35.7687 22.2729ZM33.1229 26.8458L30.3604 31.6479H32.9958C34.2229 31.6479 36.4125 31.0396 37.0875 29.2979C37.7167 27.6708 36.5604 26.8458 35.7583 26.8458H33.1229ZM13.0417 34.2604L11.4375 37L0 37.0208L1.1125 35.0979L13.0417 34.2604ZM13.8437 12.9771L23.0458 12.9896L23.7458 15.5896L12.7542 14.9021L13.8437 12.9771ZM24.2604 17.6541L25.2687 21.4708L9.55625 20.4396L10.6562 18.5229L24.2604 17.6541ZM16.2604 28.6562L14.2667 32.1166L3.18333 31.4875L4.29583 29.5625L16.2604 28.6562Z" fill="black"/>
</g>
<defs>
<clipPath id="clip0_174_221">
<rect width="50" height="50" fill="white"/>
</clipPath>
</defs>
</svg>
