<svg width="60" height="26" viewBox="0 0 60 26" fill="none" xmlns="http://www.w3.org/2000/svg">
<g clip-path="url(#clip0_174_236)">
<path d="M56.9225 24.4907L48.0331 0.0161502L48.027 0H47.8515L46.021 5.02947L42.6884 14.1857L42.6806 14.1784C41.5256 13.1593 39.896 12.5222 37.8438 12.2849L37.2179 12.2203L37.8388 12.1407C41.2232 11.5325 43.4981 9.3951 43.4981 6.81994C43.4981 3.28857 40.1767 0.823676 35.419 0.823676H25.5199V1.00245H28.3964V19.2497L21.4105 0.0161502L21.4043 0H21.2289L19.3983 5.02947L12.3378 24.4278L12.2944 24.4328C12.1737 24.4477 12.0544 24.4596 11.9363 24.4685C11.7586 24.4824 11.5821 24.4907 11.405 24.4907H4.27096L17.8318 1.00244L17.9326 0.825899H1.34717V8.09193H1.52315C1.55434 4.55275 3.61547 1.00244 8.16934 1.00244H13.6633L0 24.6667H18.407V17.7053H18.2311C18.2071 20.7901 16.4584 23.72 12.6558 24.3816L12.535 24.4022L15.4309 16.4423H23.5434L26.4667 24.4907H23.583V24.6667H34.9011V24.4907H32.0052V12.3501H35.3466C38.7471 12.3501 40.6974 13.8693 40.6974 16.5169V18.6705C40.6974 18.9077 40.7136 19.2547 40.7314 19.5448V19.5554L38.9354 24.4896H36.5891V24.6656H41.4459V24.4896H39.1247L40.7604 19.9965C40.7637 20.0399 40.7654 20.0661 40.7654 20.0661L40.8105 20.471L40.8539 20.7388C41.1268 22.3956 41.7606 23.6136 42.7368 24.3588L42.8772 24.4607C43.619 24.9764 44.5407 25.2376 45.6183 25.2376C47.0457 25.2376 47.9974 24.8817 48.7832 24.0441L48.6802 23.9472C47.9562 24.6155 47.3486 24.8862 46.5873 24.8862C45.2903 24.8862 44.6114 23.3129 44.6114 21.7613V18.744C44.6183 17.9953 44.5011 17.2506 44.2645 16.5403L44.2322 16.4467V16.4434H50.166L53.0893 24.4919H50.2056V24.6678H60V24.4919L56.9225 24.4907ZM15.4955 16.2663L19.4919 5.28676L23.4794 16.2663H15.4955ZM32.0068 12.1735V1.00244H34.5575C37.9647 1.00244 39.7635 3.02793 39.7635 6.85781C39.7635 10.9311 38.731 12.1735 35.3466 12.1735H32.0068ZM44.1631 16.2663L44.1458 16.2228C43.8821 15.5806 43.4983 14.9946 43.0147 14.4964L42.8477 14.3293L42.8299 14.3126L46.1123 5.28676L50.0998 16.2663H44.1631Z" fill="black"/>
</g>
<defs>
<clipPath id="clip0_174_236">
<rect width="60" height="25.2376" fill="white"/>
</clipPath>
</defs>
</svg>
