<svg width="55" height="80" viewBox="0 0 55 80" fill="none" xmlns="http://www.w3.org/2000/svg">
<path d="M24 0.799805H56C68.813 0.799805 79.2002 11.187 79.2002 24V56C79.2002 68.813 68.813 79.2002 56 79.2002H24C11.187 79.2002 0.799805 68.813 0.799805 56V24C0.799805 11.187 11.187 0.799805 24 0.799805Z" stroke="#F1F1F1" stroke-width="1.6"/>
<g clip-path="url(#clip0_356_5322)">
<path d="M40.2253 37.7413L41.7067 35.1586L46.7387 34.836L46.9147 34.5213L42.264 34.1986L43.3573 32.3133H51.984C54.6373 32.3133 56.5973 33.2666 55.8333 36.0466C55.6067 36.8973 54.528 39.024 51.3587 39.912C52.0347 39.992 53.7053 40.7333 53.412 42.6546C52.9 46.0653 48.492 47.6866 46.0347 47.6866L35.8467 47.6946L35.34 45.7213L40.68 45.348L40.8627 45.032L35.068 44.68L34.4453 42.34L42.6827 41.856L42.8653 41.548L28.0707 40.624L28.7827 39.3906L44.7133 38.3573L44.8973 38.0493L40.2253 37.7413ZM46.892 38.2546L48.3587 38.2466C49.3427 38.24 50.3613 37.7933 50.736 36.8893C51.0813 36.0466 50.6187 35.328 50.0027 35.3346H48.58L46.892 38.2546ZM45.1987 41.1813L43.4307 44.2546H45.1173C45.9027 44.2546 47.304 43.8653 47.736 42.7506C48.1387 41.7093 47.3987 41.1813 46.8853 41.1813H45.1987ZM32.3467 45.9266L31.32 47.68L24 47.6933L24.712 46.4626L32.3467 45.9266ZM32.86 32.3053L38.7493 32.3133L39.1973 33.9773L32.1627 33.5373L32.86 32.3053ZM39.5267 35.2986L40.172 37.7413L30.116 37.0813L30.82 35.8546L39.5267 35.2986ZM34.4067 42.34L33.1307 44.5546L26.0373 44.152L26.7493 42.92L34.4067 42.34Z" fill="black"/>
</g>
<defs>
<clipPath id="clip0_356_5322">
<rect width="32" height="32" fill="white" transform="translate(24 24)"/>
</clipPath>
</defs>
</svg>
