<svg width="50" height="50" viewBox="0 0 50 50" fill="none" xmlns="http://www.w3.org/2000/svg">
<g clip-path="url(#clip0_174_206)">
<path d="M50.0005 16.2501L13.4213 31.8251C10.388 33.1098 7.84078 33.7522 5.77967 33.7522C3.44633 33.7522 1.75397 32.9348 0.702585 31.3001C0.0428628 30.2501 -0.151582 28.9182 0.119252 27.3043C0.391474 25.6904 1.11092 23.9696 2.27759 22.1418C3.24981 20.6626 4.84495 18.7182 7.063 16.3085C6.30968 17.4928 5.75776 18.7937 5.42967 20.1585C4.84633 22.6473 5.37133 24.4751 7.00467 25.6418C7.78245 26.1862 8.85189 26.4585 10.213 26.4585C11.3005 26.4585 12.5255 26.2835 13.888 25.9335L50.0005 16.2501Z" fill="black"/>
</g>
<defs>
<clipPath id="clip0_174_206">
<rect width="50" height="50" fill="white"/>
</clipPath>
</defs>
</svg>
