<svg width="80" height="80" viewBox="0 0 80 80" fill="none" xmlns="http://www.w3.org/2000/svg">
<rect x="0.8" y="0.8" width="78.4" height="78.4" rx="23.2" stroke="#F1F1F1" stroke-width="1.6"/>
<g clip-path="url(#clip0_356_5307)">
<path d="M56.0003 34.4L32.5896 44.368C30.6483 45.1902 29.0181 45.6014 27.6989 45.6014C26.2056 45.6014 25.1225 45.0782 24.4496 44.032C24.0274 43.36 23.9029 42.5076 24.0763 41.4747C24.2505 40.4418 24.7109 39.3405 25.4576 38.1707C26.0798 37.224 27.1007 35.9796 28.5203 34.4374C28.0382 35.1953 27.6849 36.0279 27.4749 36.9014C27.1016 38.4942 27.4376 39.664 28.4829 40.4107C28.9807 40.7591 29.6652 40.9334 30.5363 40.9334C31.2323 40.9334 32.0163 40.8214 32.8883 40.5974L56.0003 34.4Z" fill="black"/>
</g>
<defs>
<clipPath id="clip0_356_5307">
<rect width="32" height="32" fill="white" transform="translate(24 24)"/>
</clipPath>
</defs>
</svg>
